<!DOCTYPE svg PUBLIC "-//W3C//DTD SVG 1.1//EN" "http://www.w3.org/Graphics/SVG/1.1/DTD/svg11.dtd">
<!-- Uploaded to: SVG Repo, www.svgrepo.com, Transformed by: SVG Repo Mixer Tools -->
<svg width="800px" height="800px" viewBox="-2.72 -2.72 21.44 21.44" fill="none" xmlns="http://www.w3.org/2000/svg" transform="matrix(-1, 0, 0, 1, 0, 0)">
<g id="SVGRepo_bgCarrier" stroke-width="0" transform="translate(0.40000000000000036,0.40000000000000036), scale(0.95)">
<path transform="translate(-2.72, -2.72), scale(0.67)" d="M16,28.630312336499202C19.637554503426426,28.14166715796319,22.78707204609525,26.0951667350786,24.86687815012305,23.07109936718597C26.761147260929896,20.31680540059734,26.68237021068584,16.969510910461317,26.303977134281006,13.648184458835043C25.83522100848529,9.53370082515069,26.213526231224684,4.333763427744588,22.519040686074142,2.4630725302414476C18.80350095303948,0.5817209122813454,14.95822821029052,4.239157246741855,11.179388801848452,5.9898977024821C7.273782825643764,7.799369248546414,2.3319347346505714,8.509271743206448,0.7925222289716487,12.528992436829514C-0.9239705605113071,17.011105944993073,0.24520154653477677,22.446645969530426,3.5407635405401656,25.935909522212633C6.6103446843808245,29.185909864092487,11.569358124548282,29.225495663159982,16,28.630312336499202" fill="#7ed0ec" strokewidth="0"/>
</g>
<g id="SVGRepo_tracerCarrier" stroke-linecap="round" stroke-linejoin="round" stroke="#CCCCCC" stroke-width="0.16"> <path fill-rule="evenodd" clip-rule="evenodd" d="M6.42436 0H9.57565L14.995 16H11.8276L10.8115 13H5.18855L4.17242 16H1.005L6.42436 0ZM6.20468 10H9.79533L8 4.69952L6.20468 10Z" fill="#000000"/> </g>
<g id="SVGRepo_iconCarrier"> <path fill-rule="evenodd" clip-rule="evenodd" d="M6.42436 0H9.57565L14.995 16H11.8276L10.8115 13H5.18855L4.17242 16H1.005L6.42436 0ZM6.20468 10H9.79533L8 4.69952L6.20468 10Z" fill="#000000"/> </g>
</svg>